<?xml version="1.0" encoding="utf-8"?>
<!-- Generator: Adobe Illustrator 15.0.0, SVG Export Plug-In . SVG Version: 6.00 Build 0)  -->
<!DOCTYPE svg PUBLIC "-//W3C//DTD SVG 1.1//EN" "http://www.w3.org/Graphics/SVG/1.1/DTD/svg11.dtd">
<svg version="1.1" id="レイヤー_1" xmlns="http://www.w3.org/2000/svg" xmlns:xlink="http://www.w3.org/1999/xlink" x="0px"
	 y="0px" width="14.998px" height="20px" viewBox="37.501 30.999 14.998 20" enable-background="new 37.501 30.999 14.998 20"
	 xml:space="preserve">
<g>
	<path fill="#FFFFFF" d="M45,35.82c-0.34,0-0.62,0.3-0.62,0.66v13.849c0,0.37,0.28,0.67,0.62,0.67s0.62-0.3,0.62-0.67V36.48
		C45.62,36.121,45.34,35.82,45,35.82z"/>
	<path fill="#FFFFFF" d="M51.449,39.6c0.239,0.26,0.63,0.26,0.87,0c0.119-0.129,0.18-0.3,0.18-0.47s-0.061-0.339-0.18-0.469
		l-6.879-7.459c-0.24-0.271-0.631-0.271-0.881,0l-6.879,7.459c-0.24,0.259-0.24,0.679,0,0.938s0.631,0.26,0.87,0L45,32.611
		L51.449,39.6z"/>
</g>
</svg>
