<?xml version="1.0" encoding="utf-8"?>
<!-- Generator: Adobe Illustrator 15.0.0, SVG Export Plug-In . SVG Version: 6.00 Build 0)  -->
<!DOCTYPE svg PUBLIC "-//W3C//DTD SVG 1.1//EN" "http://www.w3.org/Graphics/SVG/1.1/DTD/svg11.dtd">
<svg version="1.1" id="レイヤー_1" xmlns="http://www.w3.org/2000/svg" xmlns:xlink="http://www.w3.org/1999/xlink" x="0px"
	 y="0px" width="20px" height="19.523px" viewBox="0 0 20 19.523" enable-background="new 0 0 20 19.523" xml:space="preserve">
<path fill-rule="evenodd" clip-rule="evenodd" fill="#FFFFFF" d="M15.75,5.512c0,1.88-4.1,9.919-5.83,9.919
	c-1.57,0-5.041-6.93-5.2-7.399c-0.31-0.79-0.47-2.21-0.47-2.52c0-3.47,2.68-5.51,5.67-5.51C13.391,0.002,15.75,2.363,15.75,5.512z
	 M12.279,5.512c0,1.73-1.41,2.36-2.359,2.36c-1.73,0-2.2-1.42-2.2-2.36c0-1.42,0.78-2.21,2.2-2.21
	C11.65,3.302,12.279,4.562,12.279,5.512z M6.3,13.542c-1.42,0.31-3.62,0.47-4.73,2.05c1.27,1.73,6.46,2.36,8.351,2.36
	c1.73,0,8.189-0.95,8.5-2.36c-1.1-1.58-3.461-1.729-4.721-2.05c0.471-1.42,0.631-1.26,1.26-1.26c1.102,0,5.041,1.101,5.041,3.31
	c0,3.461-9.291,3.93-10.08,3.93c-1.101,0-9.92-0.469-9.92-3.93c0-2.209,3.78-3.31,4.88-3.31C5.51,12.282,5.67,12.122,6.3,13.542z"/>
</svg>
