<?xml version="1.0" encoding="utf-8"?>
<!-- Generator: Adobe Illustrator 15.0.0, SVG Export Plug-In . SVG Version: 6.00 Build 0)  -->
<!DOCTYPE svg PUBLIC "-//W3C//DTD SVG 1.1//EN" "http://www.w3.org/Graphics/SVG/1.1/DTD/svg11.dtd">
<svg version="1.1" id="レイヤー_1" xmlns="http://www.w3.org/2000/svg" xmlns:xlink="http://www.w3.org/1999/xlink" x="0px"
	 y="0px" width="19.996px" height="19.996px" viewBox="0 0 19.996 19.996" enable-background="new 0 0 19.996 19.996"
	 xml:space="preserve">
<g>
	<g>
		<path fill-rule="evenodd" clip-rule="evenodd" fill="#FFFFFF" d="M15.205,13.23c-0.66-0.65-1.47-0.65-2.119,0
			c-0.5,0.489-0.99,0.979-1.48,1.479c-0.13,0.14-0.24,0.159-0.41,0.069c-0.32-0.17-0.66-0.31-0.97-0.5
			c-1.43-0.91-2.63-2.069-3.7-3.379c-0.53-0.65-1-1.34-1.33-2.12c-0.06-0.16-0.05-0.26,0.08-0.39c0.49-0.48,0.98-0.97,1.46-1.46
			c0.68-0.69,0.68-1.49,0-2.17l-1.16-1.17c-0.4-0.4-0.8-0.8-1.2-1.2c-0.66-0.63-1.47-0.63-2.12,0.01c-0.5,0.49-0.98,0.99-1.49,1.47
			c-0.47,0.45-0.7,1-0.75,1.63c-0.08,1.04,0.17,2.02,0.53,2.97c0.73,1.97,1.85,3.72,3.2,5.33c1.83,2.17,4.01,3.89,6.56,5.13
			c1.15,0.561,2.34,0.99,3.63,1.061c0.89,0.049,1.67-0.181,2.29-0.871c0.42-0.469,0.899-0.909,1.35-1.359
			c0.671-0.68,0.671-1.49,0.011-2.16L15.205,13.23z"/>
		<path fill-rule="evenodd" clip-rule="evenodd" fill="#FFFFFF" d="M14.405,9.91l1.54-0.26c-0.24-1.41-0.91-2.69-1.92-3.71
			c-1.07-1.07-2.42-1.74-3.91-1.95l-0.22,1.55c1.149,0.16,2.2,0.68,3.03,1.51C13.705,7.83,14.225,8.82,14.405,9.91z"/>
		<path fill-rule="evenodd" clip-rule="evenodd" fill="#FFFFFF" d="M16.804,3.23c-1.77-1.77-4.01-2.89-6.489-3.23l-0.21,1.54
			c2.13,0.3,4.07,1.27,5.609,2.8c1.451,1.45,2.4,3.28,2.75,5.3l1.531-0.26C19.595,7.04,18.496,4.92,16.804,3.23z"/>
	</g>
</g>
</svg>
