<?xml version="1.0" encoding="utf-8"?>
<!-- Generator: Adobe Illustrator 15.0.0, SVG Export Plug-In . SVG Version: 6.00 Build 0)  -->
<!DOCTYPE svg PUBLIC "-//W3C//DTD SVG 1.1//EN" "http://www.w3.org/Graphics/SVG/1.1/DTD/svg11.dtd">
<svg version="1.1" id="レイヤー_1" xmlns="http://www.w3.org/2000/svg" xmlns:xlink="http://www.w3.org/1999/xlink" x="0px"
	 y="0px" width="20.363px" height="20px" viewBox="0 -2 20.363 20" enable-background="new 0 -2 20.363 20" xml:space="preserve">
<g>
	<path fill="#FFFFFF" d="M1.955,4.932c0.258,0.18,1.034,0.721,2.33,1.621C5.58,7.449,6.572,8.141,7.263,8.625
		c0.074,0.053,0.235,0.169,0.482,0.348c0.246,0.178,0.45,0.321,0.613,0.432C8.522,9.516,8.718,9.637,8.95,9.773
		c0.23,0.137,0.449,0.238,0.653,0.308s0.394,0.103,0.567,0.103h0.023c0.175,0,0.363-0.033,0.565-0.103
		c0.205-0.067,0.425-0.17,0.654-0.308c0.23-0.137,0.429-0.258,0.589-0.369c0.164-0.109,0.369-0.254,0.615-0.432
		s0.406-0.295,0.484-0.348c0.694-0.484,2.47-1.716,5.316-3.693c0.554-0.388,1.016-0.853,1.387-1.397
		c0.37-0.547,0.557-1.119,0.557-1.716c0-0.5-0.18-0.929-0.539-1.285C19.465,0.178,19.038,0,18.545,0H1.818
		C1.234,0,0.786,0.197,0.472,0.592C0.158,0.985,0,1.476,0,2.069C0,2.546,0.208,3.063,0.625,3.62
		C1.041,4.177,1.485,4.614,1.955,4.932L1.955,4.932z"/>
	<path fill="#FFFFFF" d="M19.229,6.147c-2.486,1.683-4.373,2.99-5.66,3.921c-0.433,0.318-0.781,0.566-1.051,0.744
		c-0.271,0.179-0.629,0.358-1.074,0.545c-0.446,0.186-0.864,0.277-1.251,0.277h-0.021c-0.387,0-0.803-0.093-1.251-0.277
		c-0.445-0.187-0.804-0.366-1.072-0.545c-0.27-0.178-0.619-0.426-1.052-0.744C5.775,9.318,3.892,8.012,1.15,6.147
		C0.716,5.86,0.333,5.529,0,5.158v9.023c0,0.498,0.179,0.928,0.534,1.283C0.89,15.822,1.318,16,1.818,16h16.727
		c0.499,0,0.928-0.178,1.283-0.534c0.357-0.356,0.535-0.784,0.535-1.284V5.158C20.037,5.523,19.658,5.853,19.229,6.147L19.229,6.147
		z"/>
</g>
</svg>
